:SAMPLES-PER-SECOND 30
:FULLY-SPECIFIED
:DEGREES
1008
root  -45.7179 40.2521 0.0973555 -4.98248 -60.6373 21.8447
RightUpLeg  -29.0564 -15.2976 -14.1708
RightLeg  14.5641 18.6622 4.36391
RightFoot  2.89308 -0.855398 6.99947
RightToes  -9.31324e-010 0 -3.6325e-017
Spine  20.968 -2.57119 16.0739
Spine1  -4.48205 1.3581 -12.3685
HEad  -36.0897 -16.2857 0.431497
LeftShoulder1  0.140165 3.09422 -28.2228
LeftArm  -3.12367 15.2301 -40.9879
LeftForeArm  33.0069 -33.3412 -5.49965
LeftHand  -0.0440964 5.1377 -0.727374
RightShoulder  -0.110815 -3.90345 19.4161
RightArm  19.7232 -17.7364 4.80907
RightForeArm  -9.09025 12.2128 5.52978
RightHand  -0.19358 4.44269 -2.51406
LeftUpLeg  -21.279 -10.9434 0.0344042
LeftLeg  23.5088 -20.8645 -9.33881
LeftFoot  -8.04901 0.406623 -12.4896
LeftToes  8.61288e-010 -5.99147e-011 2.1039e-011
1009
root  -45.3708 40.1501 0.453932 -5.53325 -62.0005 20.692
RightUpLeg  -27.935 -14.398 -14.0571
RightLeg  14.3178 19.2814 4.18538
RightFoot  3.03433 -0.937765 7.59055
RightToes  -9.31324e-010 0 -3.6325e-017
Spine  20.295 -2.46869 14.5856
Spine1  -3.91027 1.01433 -10.5941
HEad  -34.3541 -14.221 -0.261627
LeftShoulder1  0.0864535 3.25262 -28.9419
LeftArm  -2.89131 13.1357 -40.7073
LeftForeArm  32.9116 -32.8948 -5.39534
LeftHand  -0.0561861 5.77633 -1.57999
RightShoulder  -0.051491 -3.6905 17.9191
RightArm  19.8667 -16.3541 4.5018
RightForeArm  -9.55975 13.8111 5.40344
RightHand  -0.380762 5.6335 -4.39228
LeftUpLeg  -19.8984 -11.3506 1.14597
LeftLeg  23.9285 -18.7256 -8.56269
LeftFoot  -10.5905 0.134782 -11.0928
LeftToes  8.61288e-010 -5.99147e-011 2.1039e-011
1010
root  -44.9697 40.0058 0.818383 -6.11221 -63.396 19.4025
RightUpLeg  -26.8981 -13.4616 -13.9622
RightLeg  14.41 19.931 4.15662
RightFoot  3.10746 -0.994783 8.00193
RightToes  -9.31324e-010 0 -3.6325e-017
Spine  20.0342 -2.65184 13.8541
Spine1  -3.92019 0.722236 -10.511
HEad  -32.3852 -12.8466 -0.714124
LeftShoulder1  0.264266 2.72165 -27.5597
LeftArm  -3.8981 12.4779 -42.1935
LeftForeArm  34.1202 -33.1558 -5.392
LeftHand  -0.0615067 6.08088 -2.26181
RightShoulder  -0.0774911 -3.79295 18.0834
RightArm  20.1485 -14.5876 5.31889
RightForeArm  -8.53344 16.1511 5.20413
RightHand  -0.324875 7.87155 -3.18464
LeftUpLeg  -18.2742 -11.2552 2.06512
LeftLeg  23.971 -16.3604 -7.49782
LeftFoot  -11.5069 0.0539472 -9.49069
LeftToes  8.61288e-010 -5.99147e-011 2.1039e-011
1011
root  -44.5125 39.8388 1.19438 -6.53372 -64.8171 18.1953
RightUpLeg  -26.1875 -12.4278 -13.951
RightLeg  14.4563 20.2823 4.11108
RightFoot  3.24817 -1.07864 8.58647
RightToes  -9.31324e-010 0 -3.6325e-017
Spine  19.3065 -2.57318 12.3209
Spine1  -3.51931 0.417947 -9.39689
HEad  -30.5565 -10.9655 -1.50038
LeftShoulder1  0.182029 2.97024 -27.9481
LeftArm  -2.21303 10.0423 -41.8747
LeftForeArm  32.9164 -32.9184 -5.40082
LeftHand  -0.0702938 6.39011 -1.51117
RightShoulder  -0.0883367 -3.83406 18.2101
RightArm  19.3347 -13.0684 7.55881
RightForeArm  -9.88361 19.7183 5.09807
RightHand  -0.427445 8.93696 -3.85421
LeftUpLeg  -16.8749 -11.896 2.80431
LeftLeg  23.8553 -14.3054 -6.50899
LeftFoot  -11.7007 0.0453732 -7.75316
LeftToes  8.61288e-010 -5.99147e-011 2.1039e-011
1012
root  -43.9769 39.6123 1.61736 -7.04161 -66.3654 16.6214
RightUpLeg  -25.1701 -11.3439 -13.8726
RightLeg  14.5565 20.8698 4.05486
RightFoot  3.24448 -1.14356 9.09102
RightToes  -9.31324e-010 0 -3.6325e-017
Spine  18.6438 -2.57778 10.9623
Spine1  -2.73099 0.069762 -8.20109
HEad  -28.1802 -9.70134 -1.22586
LeftShoulder1  0.261321 2.73996 -28.0648
LeftArm  -1.77468 8.35238 -42.1754
LeftForeArm  32.8522 -33.0358 -5.43302
LeftHand  -0.0791557 6.80125 -1.57233
RightShoulder  -0.157734 -4.09604 18.9873
RightArm  15.1635 -11.1969 11.2787
RightForeArm  -8.8755 22.9952 5.34081
RightHand  -0.413055 8.07435 -3.90713
LeftUpLeg  -14.8308 -12.7777 3.19503
LeftLeg  23.4675 -13.3275 -5.94297
LeftFoot  -12.0361 0.0308748 -6.48294
LeftToes  8.61288e-010 -5.99147e-011 2.1039e-011
1013
root  -43.3943 39.4043 2.08109 -7.87154 -68.5099 15.3172
RightUpLeg  -23.9785 -10.1085 -13.6495
RightLeg  13.8305 22.1039 3.64556
RightFoot  3.67668 -1.28649 9.92937
RightToes  -9.31324e-010 0 -3.6325e-017
Spine  18.0546 -2.41052 9.45688
Spine1  -1.96394 -0.0794197 -7.11633
HEad  -25.5053 -8.08103 -0.686163
LeftShoulder1  0.243499 2.79896 -28.3902
LeftArm  -0.733351 6.19398 -42.3416
LeftForeArm  32.4063 -32.6922 -5.37441
LeftHand  -0.0700658 6.37726 -1.78852
RightShoulder  -0.208031 -4.26308 19.9602
RightArm  10.114 -9.4598 16.035
RightForeArm  -6.27024 25.9073 5.8787
RightHand  -0.215438 7.34758 -2.33202
LeftUpLeg  -12.3375 -12.7649 2.94348
LeftLeg  22.9671 -13.3654 -5.81981
LeftFoot  -13.1654 0.0163553 -4.36694
LeftToes  8.61288e-010 -5.99147e-011 2.1039e-011
1014
root  -42.6949 39.1881 2.58276 -9.10796 -70.7527 14.7449
RightUpLeg  -23.0813 -9.38607 -13.5376
RightLeg  12.5535 23.9058 3.06096
RightFoot  4.5028 -1.53996 11.2514
RightToes  -9.31324e-010 0 -3.6325e-017
Spine  17.3292 -2.38181 7.87548
Spine1  -1.21748 -0.337094 -6.43613
HEad  -23.1529 -6.4111 -1.11962
LeftShoulder1  0.173155 3.00285 -28.4643
LeftArm  0.125045 3.97983 -42.8113
LeftForeArm  32.1008 -32.0838 -5.2441
LeftHand  -0.0550259 5.60769 -1.77754
RightShoulder  -0.281021 -4.49255 21.2496
RightArm  6.38706 -7.28007 21.9197
RightForeArm  -3.85271 28.1554 6.28886
RightHand  -0.213648 7.13643 -2.33464
LeftUpLeg  -10.5223 -10.9677 1.84082
LeftLeg  23.0486 -11.8069 -5.14245
LeftFoot  -16.1282 0.0470612 -1.20296
LeftToes  8.61288e-010 -5.99147e-011 2.1039e-011
1015
root  -41.9441 39.0394 3.07942 -12.4003 -73.534 16.3787
RightUpLeg  -22.0463 -9.60951 -13.3399
RightLeg  9.88032 27.3856 1.90882
RightFoot  6.18794 -1.97533 13.0194
RightToes  -9.31324e-010 0 -3.6325e-017
Spine  17.0298 -2.00021 5.16317
Spine1  -0.938356 -0.474064 -5.07312
HEad  -21.3228 -6.24304 -1.19116
LeftShoulder1  0.0642673 3.32178 -29.223
LeftArm  0.417489 2.26142 -43.0573
LeftForeArm  32.1178 -31.7741 -5.16945
LeftHand  -0.0500003 5.39955 -1.87336
RightShoulder  -0.329399 -4.62578 22.3278
RightArm  4.93956 -4.62379 28.1801
RightForeArm  0.617249 29.387 6.35435
RightHand  -0.247826 7.9005 -2.53058
LeftUpLeg  -8.82538 -8.6565 0.152065
LeftLeg  22.6053 -9.15244 -3.82789
LeftFoot  -17.4282 0.194805 1.77303
LeftToes  8.61288e-010 -5.99147e-011 2.1039e-011
